<svg id="Layer_1" data-name="Layer 1" xmlns="http://www.w3.org/2000/svg" viewBox="0 0 319 319"><defs><style>.cls-1{fill:#05cc79;}.cls-2{fill:#fff;}</style></defs><circle class="cls-1" cx="159.5" cy="159.5" r="159.5"/><path class="cls-2" d="M91.14,269.25c-23.93-23.92-36.46-55.82-36.46-86.58l124.18,123C147,304.57,115.06,293.18,91.14,269.25Zm116.2,33L58.1,153.05c12.53-55.83,62.66-98,121.9-98a125.66,125.66,0,0,1,101.4,51.27l-17.09,14.81c-19.37-26.21-50.13-43.3-84.31-43.3-44.43,0-82,28.49-96.84,68.36l131,131c33-11.39,58.1-39.88,66.08-74.05H225.57V180.39h79.75C305.32,239.63,263.17,289.76,207.34,302.29Z" transform="translate(-20.5 -20.89)"/></svg>