<?xml version="1.0" encoding="utf-8"?>
<!-- Generator: Adobe Illustrator 21.1.0, SVG Export Plug-In . SVG Version: 6.00 Build 0)  -->
<svg version="1.1" id="Layer_1" xmlns="http://www.w3.org/2000/svg" xmlns:xlink="http://www.w3.org/1999/xlink" x="0px" y="0px"
	 viewBox="0 0 360 360" style="enable-background:new 0 0 360 360;" xml:space="preserve">
<style type="text/css">
	.st0{fill:#05cc79;}
</style>
<g>
	<path class="st0" d="M180,143.8c19.8,0,36,16.2,36,36c0,20-16.2,36-36,36c-20,0-36-16.2-36-36C143.8,160,160,143.8,180,143.8"/>
	<path class="st0" d="M140.2,255.1c-24.5,24.5-60.5,60.5-60.5,60.5s-43.6-26.5-18-52.2c13.9-13.9,30.8-30.8,43.2-43.2
		C126.5,198.7,162,233.1,140.2,255.1"/>
	<path class="st0" d="M219.8,104.9c24.5-24.5,60.5-60.5,60.5-60.5s43.6,26.5,18,52.2c-13.9,13.9-30.8,30.8-43.2,43.2
		C233.5,161.4,197.8,126.7,219.8,104.9"/>
	<path class="st0" d="M104.9,140.2C80.4,116,44.4,79.8,44.4,79.8s26.5-43.8,52.2-18c13.9,13.9,30.8,30.8,43.2,43.2
		C161.3,126.5,126.7,162.1,104.9,140.2"/>
	<path class="st0" d="M255.1,219.8c24.5,24.5,60.5,60.5,60.5,60.5s-26.5,43.6-52.2,18c-13.9-13.9-30.8-30.8-43.2-43.2
		C198.7,233.6,233.1,197.8,255.1,219.8"/>
	<path class="st0" d="M261,155.3h85.7c0,0,12.1,49.7-24.1,49.7h-61.2C230.8,204.8,230.1,155.3,261,155.3"/>
	<path class="st0" d="M98.8,204.8H13.4c0,0-12.1-49.7,24.1-49.7h61.2C129.2,155.3,129.9,204.8,98.8,204.8"/>
	<path class="st0" d="M204.7,261v85.7c0,0-49.7,12.1-49.7-24.1c0-19.8,0-43.4,0-61.2C155,230.9,204.7,230.2,204.7,261"/>
	<path class="st0" d="M155,98.9c0-34.6,0-85.7,0-85.7s49.7-11.9,49.7,24.3v61.2C204.7,129.2,155,129.9,155,98.9"/>
</g>
</svg>
