<svg id="Layer_1" data-name="Layer 1" xmlns="http://www.w3.org/2000/svg" viewBox="0 0 346 68.43"><defs><style>.cls-1,.cls-2,.cls-3{fill:#05cc79;}.cls-1,.cls-2{isolation:isolate;}.cls-1{opacity:0.7;}.cls-2{opacity:0.5;}</style></defs><path class="cls-1" d="M265.23,170.41v43.11H251.06V177.77Z" transform="translate(-7 -146.18)"/><path class="cls-1" d="M75.6,214.6l33.11-17.31-4.08-10.57-21.8,10.16Z" transform="translate(-7 -146.18)"/><path class="cls-2" d="M251.06,177.73,287,159.35l-6.07-10.27-29.86,14.59Z" transform="translate(-7 -146.18)"/><path class="cls-1" d="M149.89,167v46.53H136.37V147.26Z" transform="translate(-7 -146.18)"/><path class="cls-2" d="M96.07,164.42,75.6,214.6l-10.53-9.06,24.39-58.28Z" transform="translate(-7 -146.18)"/><path class="cls-3" d="M89.46,147.26h14l25.82,66.26H115Z" transform="translate(-7 -146.18)"/><path class="cls-3" d="M152,147.26l29.76,45.27v21l-45.37-66.26Z" transform="translate(-7 -146.18)"/><path class="cls-3" d="M221.29,147.26H207.22v66.27h14.07Z" transform="translate(-7 -146.18)"/><path class="cls-3" d="M251.06,159.35H229.41V147.26h50.43L287,159.35H251.06Z" transform="translate(-7 -146.18)"/><path class="cls-2" d="M328.51,188.38v25.14h-14V188.38" transform="translate(-7 -146.18)"/><path class="cls-3" d="M314.55,188.38l23.62-41.12H353l-24.49,41.12Z" transform="translate(-7 -146.18)"/><path class="cls-1" d="M314.55,188.38l-24.28-41.12h15.28L322,175.44Z" transform="translate(-7 -146.18)"/><path class="cls-3" d="M12.67,154.91c0,9.22,5.8,14.71,17.41,17.61l12.3,2.8c11,2.48,17.68,8.64,17.68,18.67A18.86,18.86,0,0,1,56,206.08c0-10-5.27-15.42-18-18.67l-12.08-2.7c-9.67-2.17-17.14-7.23-17.14-18.13a18.77,18.77,0,0,1,3.91-11.67" transform="translate(-7 -146.18)"/><path class="cls-1" d="M181.74,189.13V147.26h13.51v66.26H181.74Z" transform="translate(-7 -146.18)"/><path class="cls-1" d="M48.41,191.54c5.24,3.3,7.55,7.91,7.55,14.53-4.35,5.47-12,8.53-21,8.53-15.1,0-25.66-7.3-28-20H21.5c1.87,5.82,6.81,8.52,13.41,8.52,8.05,0,13.4-4.22,13.51-11.63" transform="translate(-7 -146.18)"/><path class="cls-1" d="M20.21,168.59a15.21,15.21,0,0,1-5.69-5.82,14.92,14.92,0,0,1-1.85-7.86c4.19-5.42,11.48-8.73,20.37-8.73,15.38,0,24.28,8,26.47,19.21H45.57c-1.54-4.43-5.39-7.88-12.41-7.88-7.51,0-12.62,4.29-12.92,11.08" transform="translate(-7 -146.18)"/></svg>