<svg xmlns="http://www.w3.org/2000/svg" viewBox="0 0 289.17 329.14"><defs><style>.cls-1{fill:#05cc79;}</style></defs><title>logoHugo</title><g id="Layer_2" data-name="Layer 2"><path class="cls-1" d="M299.51,78.71c-21.16-12.93-77.19-48.2-87.77-54.08S191,15.23,180,15.23s-21.16,3.53-31.74,9.4S81.65,65.78,60.49,78.71,35.41,112.8,35.41,133.56v96.79c0,23.9,13.72,45.84,26.65,52.89s71.31,41.15,83.46,48.59,21.55,12.54,34.48,12.54,22.33-5.09,34.48-12.54S285,290.3,297.94,283.24s26.65-29,26.65-52.89V133.56C324.59,112.8,320.67,91.64,299.51,78.71Zm2.35,148.89c0,15.68-7.44,31.74-16.46,36.44s-69.35,40.36-78.76,45.85S186.27,322,180,322s-17.24-6.67-26.64-12.15S83.61,268.75,74.6,264,58.14,243.28,58.14,227.6V135.91c0-17.63,2-28.6,16.06-38.79S143.56,54,154.14,47.36,168.24,38,180,38s15.28,2.74,25.86,9.4,65.83,39.58,79.94,49.76,16.06,21.16,16.06,38.79Z" transform="translate(-35.41 -15.23)"/><polygon class="cls-1" points="173.19 76.41 173.19 140.28 144.59 140.28 115.98 140.28 115.98 76.41 78.76 76.41 78.76 252.34 115.98 252.34 115.98 175.15 144.59 175.15 173.19 175.15 173.19 252.34 210.41 252.34 210.41 76.41 173.19 76.41"/></g></svg>