<?xml version="1.0" encoding="utf-8"?>
<!-- Generator: Adobe Illustrator 25.4.1, SVG Export Plug-In . SVG Version: 6.00 Build 0)  -->
<svg version="1.1" id="Layer_1" xmlns="http://www.w3.org/2000/svg" xmlns:xlink="http://www.w3.org/1999/xlink" x="0px" y="0px"
	 viewBox="0 0 170.4 40" style="enable-background:new 0 0 170.4 40;" xml:space="preserve">
<style type="text/css">
	.st0{fill:#3e8ed0;}
</style>
<g>
	<path class="st0" d="M96.7,1.5c0.1,0,0.3,0,0.4,0c0.5,0.1,0.8,0.6,0.5,1c-0.1,0.1-0.1,0.2-0.2,0.2l-9.2,10.5c0,0-0.2,0.2-0.2,0.3
		c-0.3,0.5,0,1,0.7,1.1c0.1,0,0.3,0,0.3,0h3.2c0,0,0.2,0,0.3,0c0.6,0.1,0.9,0.6,0.6,1.1C93,15.8,92.8,16,92.8,16L86,23.7
		c-0.1,0.1-0.2,0.2-0.2,0.3c-0.3,0.5,0,1,0.7,1c0.2,0,2.3,0,2.5,0c0.3,0,0.6,0.2,0.8,0.4c0.1,0.3,0,0.6-0.2,0.8
		c-0.1,0.1-0.2,0.2-0.2,0.2L73.5,38.2c0,0-0.2,0.2-0.3,0.2c-0.2,0.1-0.3,0.1-0.5,0c-0.1-0.1-0.2-0.2-0.1-0.4c0-0.1,0.1-0.3,0.1-0.3
		l4.3-8.9l0.1-0.3c0.3-0.6,0-1.1-0.6-1.2c-0.1,0-0.2,0-0.2,0h-3c-0.1,0-0.2,0-0.4,0c-0.5-0.1-0.8-0.5-0.6-1c0-0.1,0.2-0.3,0.2-0.3
		l5.4-9c0,0,0.1-0.1,0.1-0.2c0.3-0.5-0.1-1-0.7-1.1c-0.3,0-0.8,0-0.8,0s-1.4,0-2.4,0h-0.3c-0.5,0-0.8-0.2-0.8-0.6
		c0-0.2,0-0.4,0.1-0.5l1.6-2.9l5.4-9.5L80.2,2c0.3-0.5,0.7-0.7,1.4-0.7L96.7,1.5L96.7,1.5z"/>
</g>
</svg>
