<?xml version="1.0" encoding="utf-8"?>
<!-- Generator: Adobe Illustrator 25.4.1, SVG Export Plug-In . SVG Version: 6.00 Build 0)  -->
<svg version="1.1" id="Layer_1" xmlns="http://www.w3.org/2000/svg" xmlns:xlink="http://www.w3.org/1999/xlink" x="0px" y="0px"
	 viewBox="0 0 2398.7 2467.8" style="enable-background:new 0 0 2398.7 2467.8;" xml:space="preserve">
<style type="text/css">
	.st0{fill:#3E8ED0;}
</style>
<g>
	<path class="st0" d="M1852.4,207c5.6,0,16.7,0,22.3,0c27.9,5.6,44.7,33.5,27.9,55.8c-5.6,5.6-5.6,11.2-11.2,11.2L1378,860
		c0,0-11.2,11.2-11.2,16.7c-16.7,27.9,0,55.8,39.1,61.4c5.6,0,16.7,0,16.7,0h178.6c0,0,11.2,0,16.7,0c33.5,5.6,50.2,33.5,33.5,61.4
		c-5.6,5.6-16.7,16.7-16.7,16.7L1255.2,1446c-5.6,5.6-11.2,11.2-11.2,16.7c-16.7,27.9,0,55.8,39.1,55.8c11.2,0,128.4,0,139.5,0
		c16.7,0,33.5,11.2,44.7,22.3c5.6,16.7,0,33.5-11.2,44.7c-5.6,5.6-11.2,11.2-11.2,11.2l-887.4,658.6c0,0-11.2,11.2-16.7,11.2
		c-11.2,5.6-16.7,5.6-27.9,0c-5.6-5.6-11.2-11.2-5.6-22.3c0-5.6,5.6-16.7,5.6-16.7l240-496.7l5.6-16.7c16.7-33.5,0-61.4-33.5-67
		c-5.6,0-11.2,0-11.2,0H546.4c-5.6,0-11.2,0-22.3,0c-27.9-5.6-44.7-27.9-33.5-55.8c0-5.6,11.2-16.7,11.2-16.7l301.4-502.3
		c0,0,5.6-5.6,5.6-11.2c16.7-27.9-5.6-55.8-39.1-61.4c-16.7,0-44.7,0-44.7,0s-78.1,0-134,0h-16.7c-27.9,0-44.7-11.2-44.7-33.5
		c0-11.2,0-22.3,5.6-27.9l89.3-161.9L925.9,246l5.6-11.2c16.7-27.9,39.1-39.1,78.1-39.1L1852.4,207L1852.4,207z"/>
</g>
</svg>
