<?xml version="1.0" encoding="utf-8"?>
<!-- Generator: Adobe Illustrator 25.4.1, SVG Export Plug-In . SVG Version: 6.00 Build 0)  -->
<svg version="1.1" id="Layer_1" xmlns="http://www.w3.org/2000/svg" xmlns:xlink="http://www.w3.org/1999/xlink" x="0px" y="0px"
	 viewBox="0 0 2398.7 2467.8" style="enable-background:new 0 0 2398.7 2467.8;" xml:space="preserve">
<style type="text/css">
	.st0{fill:#3E8ED0;}
	.st1{fill:#FFFFFF;}
	.st2{fill:#7D888E;}
</style>
<g>
	<path class="st0" d="M1004.9,272.1c153.5-160.7,408.2-166.5,568.9-13c30,28.7,55.4,61.8,75.3,98.3c62.9-28.1,131-42.5,199.9-42.2
		c275.5,0,498.8,223.3,498.8,498.8c0,275.5-223.3,498.8-498.8,498.8c-32.7-0.1-65.3-3.4-97.3-10c-64,114.1-184.6,184.9-315.4,185.2
		c-54.7,0.2-108.7-12.3-157.6-36.7c-89.4,209.7-331.9,307.1-541.5,217.7c-104.2-44.5-185.6-129.8-225-236
		c-25.9,5.5-52.3,8.3-78.8,8.3c-213.9-2.8-385.1-178.4-382.3-392.3c1.7-135.7,74.4-260.5,191.4-329.2c-24.5-56-37-116.5-36.6-177.6
		C205.4,296.2,404.2,96.7,649.9,96.3c139.1-0.2,270.3,64.6,354.6,175.2"/>
	<path class="st1" d="M383.7,929.5c-1,1.8-0.6,4.1,1,5.5c4.5,2.7,8.3,5.5,12.8,8.3c21.2,11.1,44.9,16.5,68.8,15.6
		c46.8,0,76.1-24.8,76.1-65.1v-1c0-37.6-33-50.5-64.2-60.5l-3.4-1.4c-23-7.3-43.1-13.8-43.1-29.3v-1c0-12.8,12-23,30.3-23
		c20.8,0.3,41.3,5.6,59.6,15.5c1.9,1.4,4.5,0.9,5.9-1v-1c1-2.8,9.2-23.8,9.2-25.7c0.6-2-0.1-4.2-1.8-5.5
		c-20.5-12.2-44-18.5-67.8-18.3h-4.5c-43.1,0-73.3,25.7-73.3,63.3v1c0,39.5,33,52.3,64.2,60.5l4.5,1.8c23,7.3,42.2,12.8,42.2,28.5v1
		c0,14.7-12.8,25.7-33,25.7c-21.5,0.2-42.5-5.9-60.5-17.5c-3.7-1.8-5.5-3.7-7.3-4.5c-1.9-1.4-4.5-0.9-5.9,1v1L383.7,929.5z"/>
	<path class="st1" d="M1071.3,929.5c-1,1.8-0.6,4.1,1,5.5c4.6,2.7,8.3,5.5,12.8,8.3c21.2,11.1,44.9,16.5,68.8,15.6
		c46.8,0,76.1-24.8,76.1-65.1v-1c0-37.6-33-50.5-64.2-60.5l-3.3-1.4c-23-7.3-43.1-13.8-43.1-29.3v-1c0-12.8,12-23,30.3-23
		c20.8,0.3,41.3,5.6,59.6,15.5c1.9,1.4,4.5,0.9,5.9-1v-1c1-2.8,9.2-23.8,9.2-25.7c0.6-2-0.1-4.2-1.8-5.5
		c-20.5-12.2-44-18.5-67.8-18.3h-4.5c-43.1,0-73.3,25.7-73.3,63.3v1c0,39.5,33,52.3,64.2,60.5l4.5,1.8c23,7.3,42.2,12.8,42.2,28.5v1
		c0,14.7-12.8,25.7-33,25.7c-21.4,0.2-42.5-5.9-60.5-17.5c-3.7-1.8-5.5-3.7-7.3-4.5c-1.9-1.4-4.6-0.9-5.9,1v1L1071.3,929.5z"/>
	<path class="st1" d="M1581.5,808.4c-3.6-12.3-9.5-23.9-17.5-34c-8.4-9.6-18.7-17.4-30.3-23c-27-11-57.3-11-84.3,0
		c-11.5,5.5-21.8,13.3-30.3,23c-8.3,9.9-14.3,21.5-17.5,34c-7.3,27.6-7.3,56.7,0,84.3c3.6,12.4,9.5,23.9,17.5,34
		c8.4,9.6,18.7,17.4,30.3,23c27,11,57.3,11,84.3,0c11.7-5.2,22.1-13.1,30.3-23c8.3-9.9,14.3-21.5,17.5-34c3.7-13.8,5.6-28,5.5-42.2
		c0.2-14.3-1.7-28.5-5.5-42.2 M1542.1,850.5c0.9,18.6-3.5,37.1-12.8,53.2c-8.5,12.8-23.3,19.8-38.5,18.3c-15.1,1-29.7-6-38.5-18.3
		c-17.1-33.4-17.1-73,0-106.3c8.4-12.8,23.3-19.8,38.5-18.3c15.1-1,29.7,6,38.5,18.3c9.4,16.1,13.8,34.6,12.8,53.2"/>
	<path class="st1" d="M1903.4,916.7c-0.5-2-2.4-3.2-4.4-2.7l0,0c-5.9,2.4-12,4.2-18.3,5.5c-7,1.1-14,1.7-21.1,1.8
		c-16.6,1-32.9-5-45-16.5c-12.4-15.2-18.3-34.6-16.5-54.1c-0.7-18.2,4.5-36.2,14.7-51.3c10.5-13.4,27-20.7,44-19.3
		c14-0.2,27.9,1.6,41.3,5.5c2,0.4,3.9-0.8,4.5-2.8c3.7-9.2,6.5-16.5,10-26.5c0.5-1.9-0.6-4-2.5-4.5l0,0c-8.6-3-17.5-5.2-26.5-6.5
		c-9.7-1.1-19.5-1.7-29.3-1.8c-15.1-0.3-30.1,2.5-44,8.3c-12.3,5.2-23.2,13-32,23c-8.5,10-15.1,21.5-19.3,34
		c-4.5,13.6-6.7,27.9-6.5,42.2c-1.3,28.3,7.9,56,25.7,78c20.5,20.7,49,31.4,78,29.3c19.1,0.2,38.1-3.2,56-10c1.5-1,2.2-2.8,1.8-4.5
		L1903.4,916.7z"/>
	<path class="st1" d="M2104.3,801.1c-3.5-11.6-9.4-22.2-17.5-31.2c-7-8.3-15.8-14.9-25.7-19.3c-12.2-5-25.3-7.4-38.5-7.3
		c-15.1-0.4-30.1,2.5-44,8.3c-11.7,5.3-22,13.1-30.3,23c-8.2,10.4-14.4,22.2-18.3,34.8c-3.8,13.8-5.6,28-5.5,42.2
		c-0.3,14.3,1.9,28.6,6.5,42.2c3.5,12.8,10.1,24.5,19.3,34c9.5,9.4,20.7,16.9,33,22c15.5,6,32,8.4,48.6,7.3c23,1.4,46.1-3,67-12.8
		c1.8-1,2.8-1.8,1-6.5l-9.2-24.8c-0.4-1.6-2-2.6-3.7-2.2c0,0,0,0-0.1,0h-1c-17.3,7.5-36.2,10.9-55,10c-16.7,0.7-33-4.9-45.8-15.5
		c-10.7-12.1-16.3-27.9-15.5-44h133c2,0.1,3.6-1.5,3.7-3.4c0,0,0,0,0,0l0,0c2.8-1,7.3-27.5-1.8-56.8 M1972.3,828.6
		c1.2-11.1,5-21.8,11-31.2c8-12.8,22.5-20.2,37.5-19.3c15-0.6,29.3,6.7,37.6,19.3c5.6,9.5,8.8,20.2,9.2,31.2H1972.3z"/>
	<path class="st1" d="M1039.7,801.1c-3.5-11.6-9.4-22.2-17.5-31.2c-7-8.3-15.8-14.9-25.7-19.3c-12.2-5-25.3-7.4-38.5-7.3
		c-15.1-0.4-30.1,2.5-44,8.3c-11.7,5.3-22,13.1-30.3,23c-8.2,10.4-14.4,22.2-18.3,34.8c-3.8,13.8-5.6,28-5.5,42.2
		c-0.3,14.3,1.9,28.6,6.5,42.2c3.4,12.8,10.1,24.5,19.3,34c9.5,9.4,20.7,16.9,33,22c15.5,6,32,8.4,48.6,7.3c23,1.4,46.1-3,67-12.8
		c1.8-1,2.8-1.8,1-6.5l-10.3-24.5c-0.4-1.6-2-2.6-3.7-2.2c0,0,0,0-0.1,0h-1c-17.3,7.5-36.2,10.9-55,10c-16.7,0.7-33-4.8-45.8-15.5
		c-10.7-12.1-16.3-27.9-15.5-44h133c2,0.1,3.6-1.5,3.7-3.4c0,0,0,0,0,0l0,0c2.7-1,7.3-27.5-1.8-56.8 M906.7,828.9
		c1.2-11.1,5-21.8,11-31.2c8-12.8,22.5-20.2,37.6-19.3c15-0.6,29.3,6.7,37.6,19.3c5.6,9.5,8.8,20.2,9.2,31.2H906.7z"/>
	<path class="st1" d="M673,822.2c-5.5,0-12-1-21-1c-11.2,0.2-22.2,1.7-33,4.5c-9.9,2.6-19.2,6.9-27.5,12.8
		c-8.3,5.5-14.9,13.1-19.3,22c-4.8,9.4-7.3,19.7-7.3,30.3c-0.5,10.5,1.8,20.9,6.5,30.3c4,8.4,10,15.6,17.5,21
		c8.3,5.8,17.6,9.9,27.5,12c11.4,2.7,23.1,4,34.8,3.7c13.5,0.2,27-1.1,40.3-3.7c12.8-1.8,29.3-5.5,34-6.5c3.1-0.7,6.2-1.6,9.2-2.7
		c2-0.5,3.2-2.4,2.8-4.4V818.6c1.9-21.7-5.8-43.2-21-58.7c-17.7-13.2-39.5-19.7-61.5-18.3c-12-0.1-24,1.1-35.8,3.7
		c-14.5,2.5-28.4,7.5-41.3,14.7c-1.7,1.3-2.1,3.7-1,5.5l9.2,25.7c0.4,1.6,2,2.6,3.7,2.2c0,0,0,0,0.1,0h1c0.7-0.1,1.3-0.4,1.8-1
		c17.9-8.6,37.5-13.3,57.4-13.8c11.6-0.8,23.2,2.1,33,8.3c7.3,5.5,11,13.8,11,32.1v5.5l-21-1.8 M620.5,916.2c-3-2.2-5.5-5-7.3-8.3
		c-8.2-14.2-5.2-32.3,7.3-43.1c11.3-7.7,25-10.9,38.5-9.2c12,0,23.9,1,35.8,2.8V919c-11.8,2.4-23.7,3.9-35.8,4.5
		C645.8,925.5,632.2,923,620.5,916.2"/>
	<path class="st1" d="M1745.8,753.4c0.8-1.6,0.1-3.6-1.5-4.4l0,0c-7.1-2.2-14.5-3.5-22-3.7c-11.6-1.2-23.3,0.7-34,5.5
		c-8.6,3.7-16.1,9.3-22,16.5v-16.5c-0.1-2-1.7-3.6-3.7-3.7h-35.8c-2,0.1-3.6,1.7-3.7,3.7v198.9c0.1,2,1.7,3.6,3.7,3.7h34.8
		c2-0.1,3.6-1.7,3.7-3.7v-99c-0.2-11.8,1.3-23.5,4.5-34.8c2.1-7.4,6.3-14.1,12-19.3c4.6-4.7,10.2-8.2,16.5-10
		c5.7-1.7,11.5-2.6,17.5-2.7c5,0.1,9.9,0.7,14.7,1.8c2.2,0.2,4.3-1.3,4.5-3.6l0,0c2.7-6.5,9.2-24.8,11-28.5"/>
	<path class="st1" d="M1417.4,661.8l-12.8-2.8c-6-1.1-12.1-1.7-18.3-1.8c-20.7-1.5-41,5.9-56,20.2c-14.5,17.2-23.8,38.2-26.5,60.5
		l-1.8,9.2h-30.3c-2.2,0.1-4.1,1.6-4.5,3.7l-4.5,27.5c-0.3,2.1,1.1,4.1,3.2,4.5h30.8l-30.3,165.9c-1.6,11.3-4.4,22.3-8.3,33
		c-2,6.9-5.1,13.4-9.2,19.3c-2.9,4.3-7.1,7.6-12,9.2c-5,1.6-10.3,2.2-15.5,1.8c-2.8,0-7.3-1-11-1c-2.6-0.5-5-1.5-7.3-2.7
		c-1.7-0.6-3.7,0.2-4.5,1.8c-1,2.8-9.2,24.8-10,26.5c-1,2-0.2,4.5,1.8,5.5c3.9,1.5,7.9,2.7,12,3.7c6.3,1.4,12.8,2,19.3,1.8
		c11.2,0.2,22.4-1.7,33-5.5c9.5-3.8,18-9.7,24.8-17.5c7.6-8.6,13.5-18.5,17.5-29.3c5.1-14.7,9.1-29.7,12-45l30.3-169.6h43.5
		c2.2-0.1,4-1.6,4.5-3.7l4.5-27.5c0.3-2.1-1.1-4.1-3.2-4.5h-43.6c1.3-10.3,3.7-20.5,7.3-30.3c1.8-5.3,5-10,9.2-13.8
		c3.2-3,6.9-5.5,11-7.3c4.8-1.1,9.8-1.7,14.7-1.8c3.7,0,8.3,1,11,1c2.2,0.2,4.4,0.8,6.5,1.8c4.5,1,4.5,0,5.5-1.8l10.1-27.5
		c1-1.8-1.8-2.7-2.8-3.7"/>
	<path class="st1" d="M823.7,949.7c-0.1,2-1.7,3.6-3.7,3.7h-34.8c-2-0.1-3.6-1.7-3.7-3.7V665.7c0.1-2,1.7-3.6,3.7-3.7h34
		c2,0.1,3.6,1.7,3.7,3.7v284.2L823.7,949.7z"/>
</g>
<g>
	<path class="st2" d="M309.8,1990.7c-3.7,3.6-7.5,7.1-11.6,10.3v-54.6h-48.7v425.1h48.8v-155.9c70.3,80.9,151.3,72.8,203.7,40
		c64.2-39.8,91.8-125.4,68.8-204.5C535.3,1934.6,389.3,1894.6,309.8,1990.7z M399.1,2231.9c-64.2,0-103.6-55-104.1-123.8
		c-0.6-68.8,52.8-125.6,116.8-126.1c64-0.5,114.6,53.5,114.6,125.9c-0.6,69-57,124.4-126,123.8h0H399L399.1,2231.9z"/>
	<path class="st2" d="M2046.6,1847.4v96.3h102.5v44h-99.9c-0.7,10.6-1.8,18.3-1.8,27.5c0,50.6,1.9,101.4,0,151.3
		c-3,59.6,27.5,72.2,82.5,61.2c4.7-1.3,9.3-2.8,13.8-4.5c11.4,37.3,4.3,48.6-32.9,53.2c-77.4,9.2-114.6-23.5-114.7-101.8v-184.9
		l-44-2.1v-41.3l43.7-2.7v-96.3L2046.6,1847.4L2046.6,1847.4z"/>
	<path class="st2" d="M1036.5,2270.5h-49.2v-324.1h48.3v74.8c34-51.3,71.7-84,131.9-81.6v50.5c-97.7,18.3-131.1,59.7-131.1,160.9
		C1036.5,2189.8,1036.5,2229.1,1036.5,2270.5z"/>
	<path class="st2" d="M1469.7,1811.5v188.5c-85.8-76.9-163.4-82.5-229.2-21.6c-65.7,60.9-71.5,170.6-15.9,242
		c22.2,28.8,54.3,48.4,90.1,55c62.3,12.5,111.1-11.8,154.8-65.9v60.1h47.2v-458.2h-46.9V1811.5z M1351.6,2233.9
		c-64.2-1.5-114-58.3-112.7-128.9c1.4-70.6,49.4-123.8,114.6-123c65.2,0.8,117.6,56.8,116.6,128.3c-0.6,68.1-55.2,124.9-118.4,123.5
		H1351.6z"/>
	<path class="st2" d="M902.1,2042.7c-2.9-49.7-33.4-82.5-81-95.3c-58.6-14.9-120.5-7.7-174.1,20.2l13.8,40.3
		c57.6-21.5,88.2-25.7,125.9-21c42.4,5.4,79.9,45.8,65.5,93.8l-14.9-3.2c-55-10.3-109.4-16.4-161.8,7.8c-49.5,21-72.5,78-51.6,127.5
		c7.4,17.4,19.7,32.3,35.3,42.8c27.4,18.3,60.2,26.5,93,23.3c39.5-3,76.4-20.9,103.3-49.9l2.3,41.3h45.8c0-7.3,1.8-13.8,1.6-19
		C904.9,2181.5,906.3,2111.5,902.1,2042.7z M808.2,2224.8c-40.3,19.4-81.4,22.3-119.3-5.8c-25-20.4-28.7-57.1-8.3-82.1
		c3.7-4.5,8.1-8.5,13-11.7c46-21.3,98.3-24.5,146.6-9.2c8.2,3.8,14.2,11.1,16.1,19.9c7,37.1-13,74.1-48,88.5L808.2,2224.8z"/>
	<path class="st2" d="M1755.4,1936.5c-94.9-1.6-173.2,74.1-174.8,169.1c-1.6,95,74.1,173.2,169.1,174.8
		c94.9,1.6,173.1-74,174.8-168.9v-1.1c1.8-94-73-171.7-167.1-173.5c-0.1,0-0.1,0-0.2,0L1755.4,1936.5z M1755.4,2234.9
		c-67,0-120.1-56.5-119.8-128.3c0.3-71.8,51.3-125.3,119.3-124.8c68,0.6,119.3,56.1,119.3,126.4c0,70.3-52.1,126.4-118.9,126.7
		H1755.4z"/>
</g>
</svg>
